<mxfile host="app.diagrams.net" modified="2022-06-08T09:41:27.073Z" agent="5.0 (Windows NT 10.0; Win64; x64) AppleWebKit/537.36 (KHTML, like Gecko) Chrome/102.0.0.0 Safari/537.36" etag="o8altK-JeauzdZnjbwpG" version="19.0.0" type="github">
  <diagram id="nHFBGifoys0Umiv3ELIu" name="第 1 页">
    <mxGraphModel dx="1038" dy="539" grid="0" gridSize="10" guides="1" tooltips="1" connect="1" arrows="1" fold="1" page="1" pageScale="1" pageWidth="827" pageHeight="1169" math="0" shadow="0">
      <root>
        <mxCell id="0" />
        <mxCell id="1" parent="0" />
        <mxCell id="GINr1FvOcqPanAYepQFZ-8" style="edgeStyle=orthogonalEdgeStyle;rounded=0;orthogonalLoop=1;jettySize=auto;html=1;" edge="1" parent="1" source="GINr1FvOcqPanAYepQFZ-2">
          <mxGeometry relative="1" as="geometry">
            <mxPoint x="355" y="89.94285365513394" as="targetPoint" />
          </mxGeometry>
        </mxCell>
        <mxCell id="GINr1FvOcqPanAYepQFZ-2" value="开始" style="strokeWidth=2;html=1;shape=mxgraph.flowchart.terminator;whiteSpace=wrap;" vertex="1" parent="1">
          <mxGeometry x="323" y="33" width="64" height="37" as="geometry" />
        </mxCell>
        <mxCell id="GINr1FvOcqPanAYepQFZ-9" style="edgeStyle=orthogonalEdgeStyle;rounded=0;orthogonalLoop=1;jettySize=auto;html=1;" edge="1" parent="1" source="GINr1FvOcqPanAYepQFZ-3">
          <mxGeometry relative="1" as="geometry">
            <mxPoint x="359" y="165.37142508370533" as="targetPoint" />
          </mxGeometry>
        </mxCell>
        <mxCell id="GINr1FvOcqPanAYepQFZ-3" value="用户请求登录" style="rounded=1;whiteSpace=wrap;html=1;absoluteArcSize=1;arcSize=14;strokeWidth=2;" vertex="1" parent="1">
          <mxGeometry x="309" y="91" width="100" height="32" as="geometry" />
        </mxCell>
        <mxCell id="GINr1FvOcqPanAYepQFZ-10" style="edgeStyle=orthogonalEdgeStyle;rounded=0;orthogonalLoop=1;jettySize=auto;html=1;entryX=0.5;entryY=0;entryDx=0;entryDy=0;entryPerimeter=0;" edge="1" parent="1" source="GINr1FvOcqPanAYepQFZ-4" target="GINr1FvOcqPanAYepQFZ-6">
          <mxGeometry relative="1" as="geometry" />
        </mxCell>
        <mxCell id="GINr1FvOcqPanAYepQFZ-4" value="根据用户名查找用户信息" style="rounded=1;whiteSpace=wrap;html=1;absoluteArcSize=1;arcSize=14;strokeWidth=2;" vertex="1" parent="1">
          <mxGeometry x="309" y="167" width="100" height="28" as="geometry" />
        </mxCell>
        <mxCell id="GINr1FvOcqPanAYepQFZ-12" style="edgeStyle=orthogonalEdgeStyle;rounded=0;orthogonalLoop=1;jettySize=auto;html=1;entryX=0;entryY=0.5;entryDx=0;entryDy=0;entryPerimeter=0;" edge="1" parent="1" source="GINr1FvOcqPanAYepQFZ-6" target="GINr1FvOcqPanAYepQFZ-11">
          <mxGeometry relative="1" as="geometry" />
        </mxCell>
        <mxCell id="GINr1FvOcqPanAYepQFZ-19" style="edgeStyle=orthogonalEdgeStyle;rounded=0;orthogonalLoop=1;jettySize=auto;html=1;entryX=0.5;entryY=0;entryDx=0;entryDy=0;entryPerimeter=0;" edge="1" parent="1" source="GINr1FvOcqPanAYepQFZ-6" target="GINr1FvOcqPanAYepQFZ-14">
          <mxGeometry relative="1" as="geometry" />
        </mxCell>
        <mxCell id="GINr1FvOcqPanAYepQFZ-6" value="查询结果是否为空" style="strokeWidth=2;html=1;shape=mxgraph.flowchart.decision;whiteSpace=wrap;" vertex="1" parent="1">
          <mxGeometry x="295.5" y="223" width="127" height="54" as="geometry" />
        </mxCell>
        <mxCell id="GINr1FvOcqPanAYepQFZ-11" value="结束" style="strokeWidth=2;html=1;shape=mxgraph.flowchart.terminator;whiteSpace=wrap;" vertex="1" parent="1">
          <mxGeometry x="471" y="231.5" width="64" height="37" as="geometry" />
        </mxCell>
        <mxCell id="GINr1FvOcqPanAYepQFZ-13" value="是" style="text;html=1;align=center;verticalAlign=middle;resizable=0;points=[];autosize=1;strokeColor=none;fillColor=none;" vertex="1" parent="1">
          <mxGeometry x="431" y="233" width="22" height="18" as="geometry" />
        </mxCell>
        <mxCell id="GINr1FvOcqPanAYepQFZ-23" style="edgeStyle=orthogonalEdgeStyle;rounded=0;orthogonalLoop=1;jettySize=auto;html=1;entryX=0;entryY=0.5;entryDx=0;entryDy=0;entryPerimeter=0;" edge="1" parent="1" source="GINr1FvOcqPanAYepQFZ-14" target="GINr1FvOcqPanAYepQFZ-16">
          <mxGeometry relative="1" as="geometry" />
        </mxCell>
        <mxCell id="GINr1FvOcqPanAYepQFZ-27" style="edgeStyle=orthogonalEdgeStyle;rounded=0;orthogonalLoop=1;jettySize=auto;html=1;entryX=0.5;entryY=0;entryDx=0;entryDy=0;" edge="1" parent="1" source="GINr1FvOcqPanAYepQFZ-14" target="GINr1FvOcqPanAYepQFZ-25">
          <mxGeometry relative="1" as="geometry" />
        </mxCell>
        <mxCell id="GINr1FvOcqPanAYepQFZ-14" value="密码比对是否通过" style="strokeWidth=2;html=1;shape=mxgraph.flowchart.decision;whiteSpace=wrap;" vertex="1" parent="1">
          <mxGeometry x="292" y="305" width="134" height="58" as="geometry" />
        </mxCell>
        <mxCell id="GINr1FvOcqPanAYepQFZ-16" value="结束" style="strokeWidth=2;html=1;shape=mxgraph.flowchart.terminator;whiteSpace=wrap;" vertex="1" parent="1">
          <mxGeometry x="471" y="315.5" width="64" height="37" as="geometry" />
        </mxCell>
        <mxCell id="GINr1FvOcqPanAYepQFZ-18" value="否" style="text;html=1;align=center;verticalAlign=middle;resizable=0;points=[];autosize=1;strokeColor=none;fillColor=none;" vertex="1" parent="1">
          <mxGeometry x="431" y="315.5" width="22" height="18" as="geometry" />
        </mxCell>
        <mxCell id="GINr1FvOcqPanAYepQFZ-28" style="edgeStyle=orthogonalEdgeStyle;rounded=0;orthogonalLoop=1;jettySize=auto;html=1;entryX=0.5;entryY=0;entryDx=0;entryDy=0;" edge="1" parent="1" source="GINr1FvOcqPanAYepQFZ-25" target="GINr1FvOcqPanAYepQFZ-26">
          <mxGeometry relative="1" as="geometry" />
        </mxCell>
        <mxCell id="GINr1FvOcqPanAYepQFZ-25" value="生成jwt，将用户信息写入Redis" style="rounded=1;whiteSpace=wrap;html=1;absoluteArcSize=1;arcSize=14;strokeWidth=2;" vertex="1" parent="1">
          <mxGeometry x="309" y="390" width="100" height="32" as="geometry" />
        </mxCell>
        <mxCell id="GINr1FvOcqPanAYepQFZ-30" style="edgeStyle=orthogonalEdgeStyle;rounded=0;orthogonalLoop=1;jettySize=auto;html=1;entryX=0;entryY=0.5;entryDx=0;entryDy=0;entryPerimeter=0;" edge="1" parent="1" source="GINr1FvOcqPanAYepQFZ-26" target="GINr1FvOcqPanAYepQFZ-29">
          <mxGeometry relative="1" as="geometry" />
        </mxCell>
        <mxCell id="GINr1FvOcqPanAYepQFZ-26" value="将jwt返回给前端" style="rounded=1;whiteSpace=wrap;html=1;absoluteArcSize=1;arcSize=14;strokeWidth=2;" vertex="1" parent="1">
          <mxGeometry x="309" y="452" width="100" height="32" as="geometry" />
        </mxCell>
        <mxCell id="GINr1FvOcqPanAYepQFZ-29" value="结束" style="strokeWidth=2;html=1;shape=mxgraph.flowchart.terminator;whiteSpace=wrap;" vertex="1" parent="1">
          <mxGeometry x="471" y="449.5" width="64" height="37" as="geometry" />
        </mxCell>
        <mxCell id="GINr1FvOcqPanAYepQFZ-31" value="是" style="text;html=1;align=center;verticalAlign=middle;resizable=0;points=[];autosize=1;strokeColor=none;fillColor=none;" vertex="1" parent="1">
          <mxGeometry x="359" y="365" width="22" height="18" as="geometry" />
        </mxCell>
      </root>
    </mxGraphModel>
  </diagram>
</mxfile>
